# Blender 4.0.1
# www.blender.org
mtllib ellipsoid.mtl
o Mball
v 0.600000 0.713838 -0.600000
v 0.600000 0.600000 -0.675166
v 0.758060 0.600000 -0.600000
v 0.600000 0.200000 -0.813261
v 1.000000 0.200000 -0.613327
v 1.000000 0.251114 -0.600000
v 0.600000 -0.200000 -0.813261
v 1.000000 -0.200000 -0.613327
v 1.018165 -0.200000 -0.600000
v 1.018165 0.200000 -0.600000
v 1.000000 -0.251114 -0.600000
v 1.000000 -0.600000 -0.413271
v 1.138654 -0.600000 -0.200000
v 1.325948 -0.200000 -0.200000
v 1.138654 -0.600000 0.200000
v 1.325948 -0.200000 0.200000
v 1.325948 0.200000 0.200000
v 1.325948 0.200000 -0.200000
v 1.138654 0.600000 0.200000
v 1.138654 0.600000 -0.200000
v 1.000000 0.751616 0.200000
v 1.000000 0.751616 -0.200000
v 1.000000 0.600000 -0.413271
v 1.000000 0.600000 0.413271
v 0.611151 1.000000 0.200000
v 0.611151 1.000000 -0.200000
v 0.600000 1.005016 0.200000
v 0.600000 1.005016 -0.200000
v 0.600000 1.000000 -0.212827
v 0.600000 1.000000 0.212827
v 0.200000 1.110339 0.200000
v 0.200000 1.000000 0.432788
v -0.200000 1.110339 0.200000
v -0.200000 1.000000 0.432788
v -0.200000 0.855682 0.600000
v 0.200000 0.855682 0.600000
v 0.200000 0.600000 0.773767
v -0.200000 0.600000 0.773767
v -0.200000 0.200000 0.896183
v 0.200000 0.200000 0.896183
v -0.200000 -0.200000 0.896183
v 0.200000 -0.200000 0.896183
v -0.200000 -0.600000 0.773767
v 0.200000 -0.600000 0.773767
v -0.200000 -0.855682 0.600000
v 0.200000 -0.855682 0.600000
v 0.200000 -1.000000 0.432788
v -0.200000 -1.000000 0.432788
v -0.200000 -1.110339 0.200000
v 0.200000 -1.110339 0.200000
v 0.200000 -1.110339 -0.200000
v -0.200000 -1.110339 -0.200000
v 0.200000 -1.000000 -0.432788
v -0.200000 -1.000000 -0.432788
v -0.200000 -0.855682 -0.600000
v 0.200000 -0.855682 -0.600000
v 0.200000 -0.600000 -0.773767
v -0.200000 -0.600000 -0.773767
v 0.200000 -0.200000 -0.896183
v -0.200000 -0.200000 -0.896183
v 0.200000 0.200000 -0.896183
v -0.200000 0.200000 -0.896183
v 0.200000 0.600000 -0.773767
v -0.200000 0.600000 -0.773767
v -0.200000 0.855682 -0.600000
v 0.200000 0.855682 -0.600000
v 0.200000 1.000000 -0.432788
v -0.200000 1.000000 -0.432788
v -0.200000 1.110339 -0.200000
v 0.200000 1.110339 -0.200000
v -0.600000 1.005016 -0.200000
v -0.600000 1.000000 -0.212827
v -0.600000 1.005016 0.200000
v -0.611151 1.000000 0.200000
v -0.611151 1.000000 -0.200000
v -1.000000 0.751616 0.200000
v -1.000000 0.751616 -0.200000
v -1.000000 0.600000 -0.413271
v -0.758060 0.600000 -0.600000
v -0.600000 0.713838 -0.600000
v -1.000000 0.251114 -0.600000
v -1.000000 0.200000 -0.613327
v -0.600000 0.200000 -0.813261
v -0.600000 0.600000 -0.675166
v -1.000000 -0.200000 -0.613327
v -0.600000 -0.200000 -0.813261
v -1.000000 -0.251114 -0.600000
v -0.758060 -0.600000 -0.600000
v -0.600000 -0.600000 -0.675166
v -0.600000 -0.713838 -0.600000
v -1.000000 -0.600000 -0.413271
v -1.018165 -0.200000 -0.600000
v -1.325948 -0.200000 -0.200000
v -1.138654 -0.600000 -0.200000
v -1.018165 0.200000 -0.600000
v -1.325948 0.200000 -0.200000
v -1.325948 -0.200000 0.200000
v -1.325948 0.200000 0.200000
v -1.138654 0.600000 -0.200000
v -1.138654 0.600000 0.200000
v -1.000000 0.251114 0.600000
v -1.018165 0.200000 0.600000
v -1.000000 0.600000 0.413271
v -1.000000 0.200000 0.613327
v -1.000000 -0.200000 0.613327
v -1.018165 -0.200000 0.600000
v -1.000000 -0.251114 0.600000
v -1.000000 -0.600000 0.413271
v -1.138654 -0.600000 0.200000
v -1.000000 -0.751616 0.200000
v -1.000000 -0.751616 -0.200000
v -0.611151 -1.000000 0.200000
v -0.611151 -1.000000 -0.200000
v -0.600000 -1.005016 0.200000
v -0.600000 -1.005016 -0.200000
v -0.600000 -1.000000 -0.212827
v -0.600000 -1.000000 0.212827
v -0.758060 -0.600000 0.600000
v -0.600000 -0.713838 0.600000
v -0.600000 -0.200000 0.813261
v -0.600000 -0.600000 0.675166
v -0.600000 0.200000 0.813261
v -0.758060 0.600000 0.600000
v -0.600000 1.000000 0.212827
v -0.600000 0.713838 0.600000
v -0.600000 0.600000 0.675166
v 0.600000 -0.713838 -0.600000
v 0.600000 -0.600000 -0.675166
v 0.758060 -0.600000 -0.600000
v 0.600000 -1.000000 -0.212827
v 0.611151 -1.000000 -0.200000
v 1.000000 -0.751616 -0.200000
v 0.600000 -1.005016 -0.200000
v 0.600000 -1.005016 0.200000
v 0.611151 -1.000000 0.200000
v 0.600000 -1.000000 0.212827
v 0.600000 -0.713838 0.600000
v 0.758060 -0.600000 0.600000
v 1.000000 -0.600000 0.413271
v 1.000000 -0.751616 0.200000
v 0.600000 -0.600000 0.675166
v 0.600000 -0.200000 0.813261
v 1.000000 -0.200000 0.613327
v 1.000000 -0.251114 0.600000
v 0.600000 0.200000 0.813261
v 1.000000 0.200000 0.613327
v 0.600000 0.600000 0.675166
v 0.758060 0.600000 0.600000
v 1.000000 0.251114 0.600000
v 0.600000 0.713838 0.600000
v 1.018165 0.200000 0.600000
v 1.018165 -0.200000 0.600000
vn 0.4631 0.5001 -0.7317
vn 0.2994 0.4183 -0.8575
vn 0.3350 0.6497 -0.6824
vn 0.6017 0.3180 -0.7327
vn 0.5129 0.1249 -0.8493
vn 0.3225 0.1487 -0.9348
vn 0.5107 -0.1248 -0.8507
vn 0.3246 -0.1505 -0.9338
vn 0.6999 0.1436 -0.6997
vn 0.7009 -0.1226 -0.7026
vn 0.5965 -0.3010 -0.7440
vn 0.9338 -0.1945 -0.3003
vn 0.8134 -0.5209 -0.2588
vn 0.6212 -0.5208 -0.5855
vn 0.9319 -0.1987 0.3036
vn 0.8159 -0.5174 0.2582
vn 0.9319 0.1987 -0.3036
vn 0.9338 0.1945 0.3003
vn 0.8159 0.5174 -0.2582
vn 0.8134 0.5209 0.2588
vn 0.6135 0.7479 -0.2534
vn 0.6135 0.7479 0.2534
vn 0.6379 0.5076 -0.5792
vn 0.6212 0.5208 0.5855
vn 0.4729 0.8478 -0.2401
vn 0.4729 0.8478 0.2401
vn 0.3246 0.9263 -0.1915
vn 0.3246 0.9263 0.1915
vn 0.3485 0.8043 -0.4814
vn 0.3485 0.8043 0.4814
vn 0.1362 0.8298 0.5412
vn 0.1230 0.9692 0.2136
vn -0.1362 0.8298 0.5412
vn -0.1230 0.9692 0.2136
vn 0.1283 0.6768 0.7249
vn -0.1283 0.6768 0.7249
vn -0.1028 0.4289 0.8975
vn 0.1028 0.4289 0.8975
vn 0.1042 0.1499 0.9832
vn -0.1042 0.1499 0.9832
vn 0.1042 -0.1499 0.9832
vn -0.1042 -0.1499 0.9832
vn 0.1028 -0.4289 0.8975
vn -0.1028 -0.4289 0.8975
vn 0.1283 -0.6768 0.7249
vn -0.1283 -0.6768 0.7249
vn -0.1362 -0.8298 0.5412
vn 0.1362 -0.8298 0.5412
vn 0.1230 -0.9692 0.2136
vn -0.1230 -0.9692 0.2136
vn -0.1230 -0.9692 -0.2136
vn 0.1230 -0.9692 -0.2136
vn -0.1362 -0.8298 -0.5412
vn 0.1362 -0.8298 -0.5412
vn 0.1283 -0.6768 -0.7249
vn -0.1283 -0.6768 -0.7249
vn -0.1028 -0.4289 -0.8975
vn 0.1028 -0.4289 -0.8975
vn -0.1042 -0.1499 -0.9832
vn 0.1042 -0.1499 -0.9832
vn -0.1042 0.1499 -0.9832
vn 0.1042 0.1499 -0.9832
vn -0.1028 0.4289 -0.8975
vn 0.1028 0.4289 -0.8975
vn 0.1283 0.6768 -0.7249
vn -0.1283 0.6768 -0.7249
vn -0.1362 0.8298 -0.5412
vn 0.1362 0.8298 -0.5412
vn 0.1230 0.9692 -0.2136
vn -0.1230 0.9692 -0.2136
vn -0.3485 0.8043 -0.4814
vn -0.3246 0.9263 -0.1915
vn -0.3246 0.9263 0.1915
vn -0.4729 0.8478 -0.2401
vn -0.4729 0.8478 0.2401
vn -0.6135 0.7479 -0.2534
vn -0.6135 0.7479 0.2534
vn -0.3350 0.6497 -0.6824
vn -0.4618 0.4985 -0.7337
vn -0.6212 0.5208 -0.5855
vn -0.6028 0.3069 -0.7365
vn -0.3016 0.4157 -0.8581
vn -0.3231 0.1489 -0.9346
vn -0.5127 0.1261 -0.8492
vn -0.3225 -0.1488 -0.9348
vn -0.5152 -0.1091 -0.8501
vn -0.3016 -0.4173 -0.8572
vn -0.4634 -0.5009 -0.7310
vn -0.6039 -0.3074 -0.7354
vn -0.3350 -0.6497 -0.6824
vn -0.6379 -0.5076 -0.5792
vn -0.8159 -0.5174 -0.2582
vn -0.9319 -0.1987 -0.3036
vn -0.6999 -0.1436 -0.6997
vn -0.9338 0.1945 -0.3003
vn -0.7009 0.1226 -0.7026
vn -0.9319 0.1987 0.3036
vn -0.9338 -0.1945 0.3003
vn -0.8159 0.5174 0.2582
vn -0.8134 0.5209 -0.2588
vn -0.6999 0.1436 0.6997
vn -0.6039 0.3074 0.7354
vn -0.6379 0.5076 0.5792
vn -0.5152 0.1091 0.8501
vn -0.7009 -0.1226 0.7026
vn -0.5127 -0.1261 0.8492
vn -0.6028 -0.3069 0.7365
vn -0.8134 -0.5209 0.2588
vn -0.6212 -0.5208 0.5855
vn -0.6135 -0.7479 0.2534
vn -0.6135 -0.7479 -0.2534
vn -0.4729 -0.8478 -0.2401
vn -0.4729 -0.8478 0.2401
vn -0.3246 -0.9263 -0.1915
vn -0.3246 -0.9263 0.1915
vn -0.3485 -0.8043 -0.4814
vn -0.3485 -0.8043 0.4814
vn -0.3350 -0.6497 0.6824
vn -0.4618 -0.4985 0.7337
vn -0.3016 -0.4157 0.8581
vn -0.3231 -0.1489 0.9346
vn -0.3225 0.1488 0.9348
vn -0.4634 0.5009 0.7310
vn -0.3350 0.6497 0.6824
vn -0.3485 0.8043 0.4814
vn -0.3016 0.4173 0.8572
vn 0.3010 -0.4148 -0.8587
vn 0.3350 -0.6497 -0.6824
vn 0.4590 -0.4947 -0.7380
vn 0.6135 -0.7479 -0.2534
vn 0.4729 -0.8478 -0.2401
vn 0.3485 -0.8043 -0.4814
vn 0.3246 -0.9263 -0.1915
vn 0.4729 -0.8478 0.2401
vn 0.3246 -0.9263 0.1915
vn 0.3485 -0.8043 0.4814
vn 0.6135 -0.7479 0.2534
vn 0.6379 -0.5076 0.5792
vn 0.4618 -0.4985 0.7337
vn 0.3350 -0.6497 0.6824
vn 0.3016 -0.4157 0.8581
vn 0.6008 -0.3197 0.7327
vn 0.5127 -0.1261 0.8492
vn 0.3231 -0.1489 0.9346
vn 0.5152 0.1091 0.8501
vn 0.3225 0.1488 0.9348
vn 0.6057 0.2945 0.7392
vn 0.4634 0.5009 0.7310
vn 0.3016 0.4173 0.8572
vn 0.3350 0.6497 0.6824
vn 0.6999 -0.1436 0.6997
vn 0.7009 0.1226 0.7026
s 1
f 3//1 2//2 1//3
f 3//1 6//4 5//5 4//6
f 2//2 3//1 4//6
f 4//6 5//5 8//7 7//8
f 5//5 10//9 9//10 8//7
f 8//7 9//10 11//11
f 14//12 13//13 12//14 11//11
f 9//10 14//12 11//11
f 13//13 14//12 16//15 15//16
f 14//12 18//17 17//18 16//15
f 18//17 20//19 19//20 17//18
f 19//20 20//19 22//21 21//22
f 20//19 23//23 22//21
f 24//24 19//20 21//22
f 22//21 26//25 25//26 21//22
f 25//26 26//25 28//27 27//28
f 26//25 29//29 28//27
f 30//30 25//26 27//28
f 32//31 30//30 27//28 31//32
f 34//33 32//31 31//32 33//34
f 36//35 32//31 34//33 35//36
f 38//37 37//38 36//35 35//36
f 40//39 37//38 38//37 39//40
f 42//41 40//39 39//40 41//42
f 44//43 42//41 41//42 43//44
f 46//45 44//43 43//44 45//46
f 48//47 47//48 46//45 45//46
f 50//49 47//48 48//47 49//50
f 52//51 51//52 50//49 49//50
f 54//53 53//54 51//52 52//51
f 56//55 53//54 54//53 55//56
f 58//57 57//58 56//55 55//56
f 60//59 59//60 57//58 58//57
f 62//61 61//62 59//60 60//59
f 64//63 63//64 61//62 62//61
f 66//65 63//64 64//63 65//66
f 68//67 67//68 66//65 65//66
f 70//69 67//68 68//67 69//70
f 69//70 68//67 72//71 71//72
f 33//34 69//70 71//72 73//73
f 71//72 75//74 74//75 73//73
f 74//75 75//74 77//76 76//77
f 80//78 79//79 78//80 77//76
f 75//74 72//71 80//78 77//76
f 78//80 79//79 81//81
f 84//82 83//83 82//84 81//81
f 79//79 84//82 81//81
f 82//84 83//83 86//85 85//86
f 86//85 89//87 88//88 87//89
f 85//86 86//85 87//89
f 88//88 89//87 90//90
f 88//88 91//91 87//89
f 94//92 93//93 92//94 87//89
f 91//91 94//92 87//89
f 96//95 95//96 92//94 93//93
f 98//97 96//95 93//93 97//98
f 100//99 99//100 96//95 98//97
f 100//99 98//97 102//101 101//102
f 103//103 100//99 101//102
f 100//99 103//103 76//77
f 102//101 104//104 101//102
f 104//104 102//101 106//105 105//106
f 105//106 106//105 107//107
f 97//98 109//108 108//109 107//107
f 106//105 97//98 107//107
f 108//109 109//108 110//110
f 109//108 94//92 111//111 110//110
f 111//111 113//112 112//113 110//110
f 112//113 113//112 115//114 114//115
f 113//112 116//116 115//114
f 117//117 112//113 114//115
f 119//118 118//119 108//109 110//110
f 112//113 117//117 119//118 110//110
f 108//109 118//119 107//107
f 121//120 120//121 105//106 107//107
f 118//119 121//120 107//107
f 120//121 122//122 104//104 105//106
f 123//123 103//103 101//102
f 102//101 98//97 97//98 106//105
f 94//92 91//91 111//111
f 97//98 93//93 94//92 109//108
f 92//94 85//86 87//89
f 92//94 95//96 82//84 85//86
f 82//84 95//96 81//81
f 84//82 79//79 80//78
f 78//80 99//100 77//76
f 125//124 124//125 74//75 76//77
f 103//103 123//123 125//124 76//77
f 123//123 126//126 125//124
f 77//76 99//100 100//99 76//77
f 74//75 124//125 73//73
f 67//68 29//29 1//3 66//65
f 72//71 68//67 65//66 80//78
f 83//83 62//61 60//59 86//85
f 57//58 128//127 127//128 56//55
f 128//127 129//129 127//128
f 132//130 131//131 130//132 127//128
f 129//129 12//14 132//130 127//128
f 130//132 131//131 133//133
f 133//133 131//131 135//134 134//135
f 135//134 136//136 134//135
f 140//137 139//138 138//139 137//140
f 136//136 135//134 140//137 137//140
f 138//139 141//141 137//140
f 144//142 143//143 142//144 141//141
f 138//139 144//142 141//141
f 143//143 146//145 145//146 142//144
f 149//147 148//148 147//149 145//146
f 146//145 149//147 145//146
f 147//149 148//148 150//150
f 24//24 148//148 149//147
f 152//151 151//152 146//145 143//143
f 152//151 143//143 144//142
f 15//16 139//138 140//137
f 135//134 131//131 132//130 140//137
f 89//87 58//57 55//56 90//90
f 127//128 130//132 53//54 56//55
f 55//56 54//53 116//116 90//90
f 116//116 54//53 52//51 115//114
f 51//52 133//133 134//135 50//49
f 115//114 52//51 49//50 114//115
f 134//135 136//136 47//48 50//49
f 49//50 48//47 117//117 114//115
f 47//48 136//136 137//140 46//45
f 117//117 48//47 45//46 119//118
f 45//46 43//44 121//120 119//118
f 141//141 142//144 42//41 44//43
f 43//44 41//42 120//121 121//120
f 142//144 145//146 40//39 42//41
f 41//42 39//40 122//122 120//121
f 39//40 38//37 126//126 122//122
f 37//38 147//149 150//150 36//35
f 126//126 38//37 35//36 125//124
f 31//32 70//69 69//70 33//34
f 124//125 34//33 33//34 73//73
f 27//28 28//27 70//69 31//32
f 17//18 19//20 24//24 149//147
f 151//152 17//18 149//147
f 16//15 17//18 151//152 152//151
f 132//130 13//13 15//16 140//137
f 15//16 16//15 152//151 144//142
f 139//138 15//16 144//142
f 12//14 129//129 11//11
f 9//10 10//9 18//17 14//12
f 61//62 4//6 7//8 59//60
f 3//1 23//23 6//4
f 10//9 5//5 6//4
f 8//7 11//11 129//129 128//127
f 7//8 8//7 128//127
f 22//21 23//23 3//1 1//3
f 29//29 26//25 22//21 1//3
f 20//19 18//17 10//9 6//4
f 23//23 20//19 6//4
f 12//14 13//13 132//130
f 21//22 25//26 30//30 150//150
f 148//148 24//24 21//22 150//150
f 146//145 151//152 149//147
f 138//139 139//138 144//142
f 1//3 2//2 63//64 66//65
f 63//64 2//2 4//6 61//62
f 59//60 7//8 128//127 57//58
f 28//27 29//29 67//68 70//69
f 53//54 130//132 133//133 51//52
f 150//150 30//30 32//31 36//35
f 145//146 147//149 37//38 40//39
f 137//140 141//141 44//43 46//45
f 65//66 64//63 84//82 80//78
f 84//82 64//63 62//61 83//83
f 86//85 60//59 58//57 89//87
f 72//71 75//74 71//72
f 96//95 99//100 78//80 81//81
f 95//96 96//95 81//81
f 90//90 116//116 113//112 111//111
f 91//91 88//88 90//90 111//111
f 35//36 34//33 124//125 125//124
f 122//122 126//126 123//123 101//102
f 104//104 122//122 101//102
f 121//120 118//119 119//118
